<svg id="visual" viewBox="0 0 900 900" width="900" height="900" xmlns="http://www.w3.org/2000/svg" xmlns:xlink="http://www.w3.org/1999/xlink" version="1.1"><rect x="0" y="0" width="900" height="900" fill="#0e4e80"></rect><defs><linearGradient id="grad1_0" x1="0%" y1="0%" x2="100%" y2="100%"><stop offset="30%" stop-color="#fa7268" stop-opacity="1"></stop><stop offset="70%" stop-color="#fa7268" stop-opacity="1"></stop></linearGradient></defs><defs><linearGradient id="grad1_1" x1="0%" y1="0%" x2="100%" y2="100%"><stop offset="30%" stop-color="#fa7268" stop-opacity="1"></stop><stop offset="70%" stop-color="#a35799" stop-opacity="1"></stop></linearGradient></defs><defs><linearGradient id="grad1_2" x1="0%" y1="0%" x2="100%" y2="100%"><stop offset="30%" stop-color="#0e4e80" stop-opacity="1"></stop><stop offset="70%" stop-color="#a35799" stop-opacity="1"></stop></linearGradient></defs><defs><linearGradient id="grad2_0" x1="0%" y1="0%" x2="100%" y2="100%"><stop offset="30%" stop-color="#fa7268" stop-opacity="1"></stop><stop offset="70%" stop-color="#fa7268" stop-opacity="1"></stop></linearGradient></defs><defs><linearGradient id="grad2_1" x1="0%" y1="0%" x2="100%" y2="100%"><stop offset="30%" stop-color="#a35799" stop-opacity="1"></stop><stop offset="70%" stop-color="#fa7268" stop-opacity="1"></stop></linearGradient></defs><defs><linearGradient id="grad2_2" x1="0%" y1="0%" x2="100%" y2="100%"><stop offset="30%" stop-color="#a35799" stop-opacity="1"></stop><stop offset="70%" stop-color="#0e4e80" stop-opacity="1"></stop></linearGradient></defs><g transform="translate(900, 0)"><path d="M0 254.6C-30.6 249.8 -61.3 245.1 -97.4 235.2C-133.6 225.3 -175.3 210.3 -177.5 177.5C-179.7 144.7 -142.5 94.2 -148.7 61.6C-155 29.1 -204.8 14.5 -254.6 0L0 0Z" fill="#615597"></path><path d="M0 169.7C-20.4 166.5 -40.8 163.4 -64.9 156.8C-89 150.2 -116.8 140.2 -118.3 118.3C-119.8 96.5 -95 62.8 -99.2 41.1C-103.3 19.4 -136.5 9.7 -169.7 0L0 0Z" fill="#da5c87"></path><path d="M0 84.9C-10.2 83.3 -20.4 81.7 -32.5 78.4C-44.5 75.1 -58.4 70.1 -59.2 59.2C-59.9 48.2 -47.5 31.4 -49.6 20.5C-51.7 9.7 -68.3 4.8 -84.9 0L0 0Z" fill="#fa7268"></path></g><g transform="translate(0, 900)"><path d="M0 -254.6C26.4 -236.1 52.8 -217.7 86.5 -208.8C120.2 -199.9 161.2 -200.4 180 -180C198.8 -159.6 195.4 -118.1 204.2 -84.6C212.9 -51.1 233.7 -25.5 254.6 0L0 0Z" fill="#615597"></path><path d="M0 -169.7C17.6 -157.4 35.2 -145.1 57.7 -139.2C80.1 -133.2 107.5 -133.6 120 -120C132.5 -106.4 130.3 -78.7 136.1 -56.4C141.9 -34 155.8 -17 169.7 0L0 0Z" fill="#da5c87"></path><path d="M0 -84.9C8.8 -78.7 17.6 -72.6 28.8 -69.6C40.1 -66.6 53.7 -66.8 60 -60C66.3 -53.2 65.1 -39.4 68.1 -28.2C71 -17 77.9 -8.5 84.9 0L0 0Z" fill="#fa7268"></path></g></svg>