<svg id="visual" viewBox="0 0 900 900" width="900" height="900" xmlns="http://www.w3.org/2000/svg" xmlns:xlink="http://www.w3.org/1999/xlink" version="1.1">
    <rect width="900" height="900" fill="#FF6F61"></rect>
    <g>
        
        <!-- right top. Not included in further count -->
        <g transform="translate(800 450)">
            <path d="M28.4 0.4C28.4 13.1 14.2 26.2 0.4 26.2C-13.4 26.2 -26.7 13.1 -26.7 0.4C-26.7 -12.3 -13.4 -24.6 0.4 -24.6C14.2 -24.6 28.4 -12.3 28.4 0.4Z" fill="#0e4e80"></path>
        </g>
        <!-- 4th -->
        <g transform="translate(250 700)">
            <path d="M40.5 -1.2C40.5 20 20.3 39.9 -1.3 39.9C-22.8 39.9 -45.7 20 -45.7 -1.2C-45.7 -22.3 -22.8 -44.6 -1.3 -44.6C20.3 -44.6 40.5 -22.3 40.5 -1.2Z" fill="#0e4e80"></path>
        </g>
        <!-- 3rd from top -->
        <g transform="translate(464 661)">
            <path d="M27.8 0.3C27.8 15.6 13.9 31.3 -0.4 31.3C-14.7 31.3 -29.5 15.6 -29.5 0.3C-29.5 -15 -14.7 -30.1 -0.4 -30.1C13.9 -30.1 27.8 -15 27.8 0.3Z" fill="#0e4e80"></path>
        </g>

        <!-- top -->
        <g transform="translate(659 381)">
            <path d="M33.7 0.3C33.7 18.4 16.8 36.8 -2.1 36.8C-21.1 36.8 -42.3 18.4 -42.3 0.3C-42.3 -17.9 -21.1 -35.7 -2.1 -35.7C16.8 -35.7 33.7 -17.9 33.7 0.3Z" fill="#0e4e80"></path>
        </g>
        <!-- 5th -->
        <g transform="translate(540 755)">
            <path d="M28.4 0.4C28.4 13.1 14.2 26.2 0.4 26.2C-13.4 26.2 -26.7 13.1 -26.7 0.4C-26.7 -12.3 -13.4 -24.6 0.4 -24.6C14.2 -24.6 28.4 -12.3 28.4 0.4Z" fill="#0e4e80"></path>
        </g>
        <!-- 6th -->
        <g transform="translate(290 810)">
            <path d="M26.4 -0.1C26.4 13.8 13.2 27.5 -0.4 27.5C-14 27.5 -28 13.8 -28 -0.1C-28 -14 -14 -28 -0.4 -28C13.2 -28 26.4 -14 26.4 -0.1Z" fill="#0e4e80"></path>
        </g>
    <!-- 2nd from top -->
        <g transform="translate(254 546)">
            <path d="M42 -1.6C42 19.5 21 39 0.2 39C-20.6 39 -41.3 19.5 -41.3 -1.6C-41.3 -22.8 -20.6 -45.6 0.2 -45.6C21 -45.6 42 -22.8 42 -1.6Z" fill="#0e4e80"></path>
        </g>
        <g transform="translate(772 820)">
            <path d="M38.5 -0.3C38.5 19.8 19.2 39.6 0.9 39.6C-17.4 39.6 -34.9 19.8 -34.9 -0.3C-34.9 -20.4 -17.4 -40.8 0.9 -40.8C19.2 -40.8 38.5 -20.4 38.5 -0.3Z" fill="#0e4e80"></path>
        </g>
    </g>
</svg>