<svg id="visual" viewBox="0 0 900 900" width="900" height="900" xmlns="http://www.w3.org/2000/svg" xmlns:xlink="http://www.w3.org/1999/xlink" version="1.1"><path d="M0 496L25 445C50 394 100 292 150 256C200 220 250 250 300 274C350 298 400 316 450 325C500 334 550 334 600 319C650 304 700 274 750 271C800 268 850 292 875 304L900 316L900 0L875 0C850 0 800 0 750 0C700 0 650 0 600 0C550 0 500 0 450 0C400 0 350 0 300 0C250 0 200 0 150 0C100 0 50 0 25 0L0 0Z" fill="#fa7268"></path><path d="M0 559L25 521.5C50 484 100 409 150 385C200 361 250 388 300 400C350 412 400 409 450 407.5C500 406 550 406 600 403C650 400 700 394 750 388C800 382 850 376 875 373L900 370L900 314L875 302C850 290 800 266 750 269C700 272 650 302 600 317C550 332 500 332 450 323C400 314 350 296 300 272C250 248 200 218 150 254C100 290 50 392 25 443L0 494Z" fill="#ef5f67"></path><path d="M0 694L25 655C50 616 100 538 150 512.5C200 487 250 514 300 535C350 556 400 571 450 568C500 565 550 544 600 535C650 526 700 529 750 527.5C800 526 850 520 875 517L900 514L900 368L875 371C850 374 800 380 750 386C700 392 650 398 600 401C550 404 500 404 450 405.5C400 407 350 410 300 398C250 386 200 359 150 383C100 407 50 482 25 519.5L0 557Z" fill="#e34c67"></path><path d="M0 766L25 748C50 730 100 694 150 668.5C200 643 250 628 300 626.5C350 625 400 637 450 644.5C500 652 550 655 600 644.5C650 634 700 610 750 607C800 604 850 622 875 631L900 640L900 512L875 515C850 518 800 524 750 525.5C700 527 650 524 600 533C550 542 500 563 450 566C400 569 350 554 300 533C250 512 200 485 150 510.5C100 536 50 614 25 653L0 692Z" fill="#d53867"></path><path d="M0 901L25 901C50 901 100 901 150 901C200 901 250 901 300 901C350 901 400 901 450 901C500 901 550 901 600 901C650 901 700 901 750 901C800 901 850 901 875 901L900 901L900 638L875 629C850 620 800 602 750 605C700 608 650 632 600 642.5C550 653 500 650 450 642.5C400 635 350 623 300 624.5C250 626 200 641 150 666.5C100 692 50 728 25 746L0 764Z" fill="#c62368"></path></svg>