<svg id="visual" viewBox="0 0 900 1200" width="900" height="1200" xmlns="http://www.w3.org/2000/svg" xmlns:xlink="http://www.w3.org/1999/xlink" version="1.1"><rect x="0" y="0" width="900" height="1200" fill="#0e4e80"></rect><path d="M0 537L37.5 554.5C75 572 150 607 225 621.2C300 635.3 375 628.7 450 630.8C525 633 600 644 675 652.8C750 661.7 825 668.3 862.5 671.7L900 675L900 1201L862.5 1201C825 1201 750 1201 675 1201C600 1201 525 1201 450 1201C375 1201 300 1201 225 1201C150 1201 75 1201 37.5 1201L0 1201Z" fill="#fa7268"></path><path d="M0 762L37.5 770.3C75 778.7 150 795.3 225 795.2C300 795 375 778 450 782.5C525 787 600 813 675 827.7C750 842.3 825 845.7 862.5 847.3L900 849L900 1201L862.5 1201C825 1201 750 1201 675 1201C600 1201 525 1201 450 1201C375 1201 300 1201 225 1201C150 1201 75 1201 37.5 1201L0 1201Z" fill="#e34c67"></path><path d="M0 982L37.5 974.3C75 966.7 150 951.3 225 961.3C300 971.3 375 1006.7 450 1022C525 1037.3 600 1032.7 675 1014C750 995.3 825 962.7 862.5 946.3L900 930L900 1201L862.5 1201C825 1201 750 1201 675 1201C600 1201 525 1201 450 1201C375 1201 300 1201 225 1201C150 1201 75 1201 37.5 1201L0 1201Z" fill="#c62368"></path></svg>